<svg width="39" height="32" viewBox="0 0 39 32" fill="none" xmlns="http://www.w3.org/2000/svg">
<g id="Logo" clip-path="url(#clip0_8_677)">
<path id="Vector" d="M31.152 25.7833C26.8364 25.7665 23.3511 22.3292 23.3659 18.1044C23.3808 13.8796 26.8901 10.4658 31.2057 10.4781C35.5214 10.4904 39.0104 13.924 39.0001 18.1489C38.9952 20.1806 38.1651 22.127 36.693 23.5591C35.2208 24.9911 33.2274 25.7913 31.152 25.7833Z" fill="#2A2C2C"/>
<path id="Vector_2" d="M31.1515 12.4641C28.7997 12.4641 26.6797 13.8513 25.7802 15.9786C24.8808 18.1058 25.3793 20.5541 27.0431 22.1812C28.707 23.8083 31.2084 24.2937 33.3805 23.411C35.5525 22.5282 36.9672 20.4512 36.9647 18.1489C36.9647 16.6402 36.3521 15.1933 35.2617 14.127C34.1713 13.0607 32.6927 12.4625 31.1515 12.4641Z" fill="url(#paint0_linear_8_677)"/>
<path id="Vector_3" d="M20.8092 24.265V1.21606C20.8669 0.827721 20.7014 0.439818 20.3786 0.207087C20.0559 -0.025644 19.6284 -0.0653303 19.2667 0.10386C18.905 0.27305 18.668 0.623586 18.6501 1.01563C18.6439 1.0823 18.6439 1.14939 18.6501 1.21606V24.2954C18.6244 24.8611 19.0564 25.3473 19.6323 25.4008C20.2082 25.4542 20.7258 25.0562 20.8092 24.4958C20.8174 24.4191 20.8174 24.3418 20.8092 24.265Z" fill="#2A2C2C"/>
<path id="Vector_4" d="M15.6602 18.1491C15.667 14.4532 12.9788 11.2789 9.26761 10.6007C5.55641 9.92236 1.87931 11.9333 0.523495 15.3826C-0.832323 18.8319 0.519307 22.7372 3.73765 24.6693C6.95601 26.6013 11.1244 26.01 13.6501 23.263V24.2833C13.665 25.7985 13.0627 27.2569 11.9764 28.3363C10.8902 29.4156 9.40945 30.0269 7.8617 30.0349C7.48493 30.0059 7.12333 30.1862 6.92585 30.5017C6.72837 30.8172 6.72837 31.2144 6.92585 31.5299C7.12333 31.8454 7.48493 32.0257 7.8617 31.9967C12.18 31.9933 15.6788 28.5654 15.6788 24.338L15.6602 18.1491ZM7.84311 23.84C5.49131 23.8424 3.3697 22.4574 2.46797 20.3311C1.56625 18.2047 2.06206 15.756 3.72414 14.1271C5.38622 12.4983 7.88704 12.0103 10.0601 12.8908C12.2331 13.7713 13.6501 15.8467 13.6501 18.1491C13.6517 19.6578 13.0407 21.1053 11.9515 22.1728C10.8622 23.2402 9.3843 23.84 7.84311 23.84Z" fill="#2A2C2C"/>
</g>
<defs>
<linearGradient id="paint0_linear_8_677" x1="27.8696" y1="20.6087" x2="35.0018" y2="15.0448" gradientUnits="userSpaceOnUse">
<stop stop-color="#EE4823"/>
<stop offset="0.17" stop-color="#EF4F22"/>
<stop offset="0.42" stop-color="#F16121"/>
<stop offset="0.7" stop-color="#F57F1E"/>
<stop offset="1" stop-color="#FAA61A"/>
</linearGradient>
<clipPath id="clip0_8_677">
<rect width="39" height="32" fill="white"/>
</clipPath>
</defs>
</svg>
