<svg width="24" height="24" viewBox="0 0 24 24" fill="none" xmlns="http://www.w3.org/2000/svg">
<g id="social-media">
<path id="Vector" d="M16.5 6H13.5C13.2348 6 12.9804 6.10536 12.7929 6.29289C12.6054 6.48043 12.5 6.73478 12.5 7V10H16.5C16.556 9.99876 16.6116 10.011 16.6619 10.0357C16.7122 10.0604 16.7559 10.0968 16.7892 10.1419C16.8225 10.187 16.8446 10.2394 16.8534 10.2947C16.8622 10.3501 16.8576 10.4068 16.84 10.46L16.1 12.66C16.0667 12.7585 16.0036 12.8442 15.9193 12.9051C15.8351 12.9661 15.734 12.9992 15.63 13H12.5V20.5C12.5 20.6326 12.4473 20.7598 12.3536 20.8536C12.2598 20.9473 12.1326 21 12 21H9.5C9.36739 21 9.24021 20.9473 9.14645 20.8536C9.05268 20.7598 9 20.6326 9 20.5V13H7.5C7.36739 13 7.24021 12.9473 7.14645 12.8536C7.05268 12.7598 7 12.6326 7 12.5V10.5C7 10.3674 7.05268 10.2402 7.14645 10.1464C7.24021 10.0527 7.36739 10 7.5 10H9V7C9 5.93913 9.42143 4.92172 10.1716 4.17157C10.9217 3.42143 11.9391 3 13 3H16.5C16.6326 3 16.7598 3.05268 16.8536 3.14645C16.9473 3.24021 17 3.36739 17 3.5V5.5C17 5.63261 16.9473 5.75979 16.8536 5.85355C16.7598 5.94732 16.6326 6 16.5 6Z" fill="#F6F6F6"/>
</g>
</svg>
